<mxfile host="Electron" agent="Mozilla/5.0 (Windows NT 10.0; Win64; x64) AppleWebKit/537.36 (KHTML, like Gecko) draw.io/25.0.2 Chrome/128.0.6613.186 Electron/32.2.5 Safari/537.36" version="25.0.2">
  <diagram name="第 1 页" id="8vmtnDNIKd9PtuqGHgGt">
    <mxGraphModel dx="1434" dy="836" grid="1" gridSize="10" guides="1" tooltips="1" connect="1" arrows="1" fold="1" page="1" pageScale="1" pageWidth="827" pageHeight="1169" math="0" shadow="0">
      <root>
        <mxCell id="0" />
        <mxCell id="1" parent="0" />
        <mxCell id="42WXVOZf5LJzGC35rbOd-4" style="edgeStyle=orthogonalEdgeStyle;rounded=0;orthogonalLoop=1;jettySize=auto;html=1;exitX=0.5;exitY=1;exitDx=0;exitDy=0;entryX=0.5;entryY=0;entryDx=0;entryDy=0;" edge="1" parent="1" source="42WXVOZf5LJzGC35rbOd-2" target="42WXVOZf5LJzGC35rbOd-3">
          <mxGeometry relative="1" as="geometry" />
        </mxCell>
        <mxCell id="42WXVOZf5LJzGC35rbOd-2" value="&lt;font style=&quot;font-size: 17px;&quot; color=&quot;#0d0d0d&quot;&gt;&amp;nbsp; &amp;nbsp; &lt;font style=&quot;&quot; face=&quot;-apple-system, blinkmacsystemfont, Helvetica Neue, helvetica, segoe ui, arial, roboto, PingFang SC, miui, Hiragino Sans GB, Microsoft Yahei, sans-serif&quot;&gt;&lt;span style=&quot;letter-spacing: 0.25px; white-space-collapse: preserve;&quot;&gt;&quot;title&quot;: &quot;麟之趾&quot;,&lt;br&gt;    &quot;chapter&quot;: &quot;国风&quot;,&lt;br&gt;    &quot;section&quot;: &quot;周南&quot;,&lt;br&gt;    &quot;content&quot;: [&lt;br&gt;      &quot;麟之趾，振振公子，于嗟麟兮。&quot;,&lt;br&gt;      &quot;麟之定，振振公姓，于嗟麟兮。&quot;,&lt;br&gt;      &quot;麟之角，振振公族，于嗟麟兮。&quot;&lt;br&gt;    ]&lt;/span&gt;&lt;/font&gt;&lt;/font&gt;" style="rounded=0;whiteSpace=wrap;html=1;align=left;" vertex="1" parent="1">
          <mxGeometry x="80" y="60" width="340" height="180" as="geometry" />
        </mxCell>
        <mxCell id="42WXVOZf5LJzGC35rbOd-3" value="&lt;span style=&quot;white-space-collapse: preserve;&quot;&gt;&lt;font style=&quot;font-size: 14px;&quot;&gt;国风-周南&amp;lt;s1&amp;gt;麟之趾&amp;lt;s2&amp;gt; 麟之趾，振振公子，于嗟麟兮。&amp;lt;/s&amp;gt;麟之定，振振公姓，于嗟麟兮。&amp;lt;/s&amp;gt;麟之角，振振公族，于嗟麟兮。&lt;/font&gt;&lt;/span&gt;" style="rounded=0;whiteSpace=wrap;html=1;align=left;" vertex="1" parent="1">
          <mxGeometry x="80" y="320" width="340" height="70" as="geometry" />
        </mxCell>
      </root>
    </mxGraphModel>
  </diagram>
</mxfile>
